<svg xmlns="http://www.w3.org/2000/svg" width="26" height="31" viewBox="0 0 26 31">
    <g fill="none" fill-rule="evenodd">
        <path fill="#006D23" d="M0 26h5v5z"/>
        <path fill="#009D3C" d="M0 0h16.003C21.524 0 26 4.47 26 9.997v6.006C26 21.524 21.53 26 16.003 26H0V0z"/>
        <path fill="#FFF" d="M12.9 12.536h4.382v5.545H12.9v-5.545zm-5.182 0H12.1v5.545H7.718v-5.545zm8.199-4.45H18v3.651h-5.1v-3.65h-.8v3.65H7v-3.65h2.083a1.531 1.531 0 0 1 1.344-2.26c.624 0 1.262.322 1.75.884.122.14.23.289.323.444.093-.155.201-.305.322-.444.49-.562 1.127-.884 1.751-.884a1.531 1.531 0 0 1 1.344 2.26zm-5.49 0a.731.731 0 0 1 0-1.46c.725 0 1.414.742 1.615 1.46h-1.615zm4.146 0h-1.615c.2-.718.89-1.46 1.615-1.46a.731.731 0 0 1 0 1.46z"/>
    </g>
</svg>
