<svg xmlns="http://www.w3.org/2000/svg" width="50" height="47" viewBox="0 0 50 47">
    <path fill="#0688F4" fill-rule="evenodd" d="M43.256 37.346c1.853.617 3.09 2.16 3.09 4.32 0 2.47-2.163 4.63-4.635 4.63s-4.635-2.16-4.635-4.63v-4.629H13.904c2.471 0 4.634 2.16 4.634 4.63 0 2.469-2.163 4.63-4.634 4.63-2.472 0-4.635-2.161-4.635-4.63v-4.63l4.017-8.025L6.797 3.086H0V0h9.27l2.162 9.26h38.003l-4.943 18.518-28.426 2.778-1.853 3.395h29.043v3.395zm-30.91-25l3.703 14.814 25.926-2.469 3.087-12.345H12.346z"/>
</svg>
