<svg xmlns="http://www.w3.org/2000/svg" width="20" height="18" viewBox="0 0 20 18">
    <path fill="#FFF" fill-rule="evenodd" d="M10.171.002C4.65-.095.096 4.385.001 10.007a10.227 10.227 0 0 0 3.564 7.957c.146-.129.302-.247.475-.343l2.984-1.657c.391-.218.635-.635.635-1.09V13.63s-.876-1.067-1.21-2.548a1.026 1.026 0 0 1-.463-.857V8.862c0-.3.131-.567.335-.755V6.138S5.923 3.073 10 3.073s3.68 3.065 3.68 3.065v1.97c.203.187.334.455.334.754v1.363c0 .458-.302.843-.712.972a7.54 7.54 0 0 1-.993 2.037c-.11.158-.213.292-.303.396v1.276c0 .47.261.9.674 1.11l3.195 1.626c.192.098.365.22.525.358a10.224 10.224 0 0 0 3.598-7.645C20.094 4.733 15.694.098 10.171.002z"/>
</svg>
