<svg xmlns="http://www.w3.org/2000/svg" width="29" height="29" viewBox="0 0 29 29">
    <path fill="#9C58E2" fill-rule="evenodd" d="M14.5 2.613c3.872 0 4.33.014 5.86.084 1.413.065 2.18.3 2.692.5.676.262 1.16.577 1.667 1.084.507.507.822.99 1.085 1.667.198.511.434 1.28.499 2.693.07 1.529.084 1.987.084 5.859s-.014 4.33-.084 5.86c-.065 1.413-.3 2.18-.5 2.692a4.492 4.492 0 0 1-1.084 1.667c-.507.507-.99.822-1.667 1.085-.511.198-1.28.434-2.693.499-1.529.07-1.987.084-5.859.084s-4.33-.014-5.86-.084c-1.413-.065-2.18-.3-2.692-.5a4.492 4.492 0 0 1-1.667-1.084 4.492 4.492 0 0 1-1.085-1.667c-.198-.511-.434-1.279-.499-2.693-.07-1.529-.084-1.987-.084-5.859s.014-4.33.084-5.86c.065-1.413.3-2.18.5-2.692A4.492 4.492 0 0 1 4.28 4.281c.507-.507.99-.822 1.667-1.085.511-.198 1.279-.434 2.693-.499 1.529-.07 1.987-.084 5.859-.084M14.5 0c-3.938 0-4.432.017-5.978.087-1.544.07-2.598.316-3.52.674a7.108 7.108 0 0 0-2.568 1.673A7.108 7.108 0 0 0 .76 5.002c-.358.922-.603 1.976-.674 3.52C.017 10.068 0 10.562 0 14.5c0 3.938.017 4.432.087 5.978.07 1.544.316 2.598.674 3.52.37.954.867 1.762 1.673 2.568a7.108 7.108 0 0 0 2.568 1.673c.922.358 1.976.603 3.52.674 1.546.07 2.04.087 5.978.087 3.938 0 4.432-.017 5.978-.087 1.544-.07 2.598-.316 3.52-.674a7.108 7.108 0 0 0 2.568-1.673 7.108 7.108 0 0 0 1.673-2.568c.358-.922.603-1.976.674-3.52.07-1.546.087-2.04.087-5.978 0-3.938-.017-4.432-.087-5.978-.07-1.544-.316-2.598-.674-3.52a7.108 7.108 0 0 0-1.673-2.568A7.108 7.108 0 0 0 23.998.76c-.922-.358-1.976-.603-3.52-.674C18.932.017 18.438 0 14.5 0m0 7.054a7.446 7.446 0 1 1 0 14.892 7.446 7.446 0 0 1 0-14.892zm0 12.28a4.833 4.833 0 1 0 0-9.667 4.833 4.833 0 0 0 0 9.666zM23.98 6.76a1.74 1.74 0 1 1-3.48 0 1.74 1.74 0 0 1 3.48 0"/>
</svg>
