<svg xmlns="http://www.w3.org/2000/svg" width="22" height="22" viewBox="0 0 22 22">
    <path fill="#A4ABB0" fill-rule="evenodd" stroke="#A4ABB0" d="M20 4.333H16.667V1.667c0-.367-.3-.667-.667-.667H6c-.367 0-.667.3-.667.667v2.666H2c-.567 0-1 .434-1 1v11.334c0 .566.433 1 1 1h2.265L3.767 20.2c-.034.2.033.433.133.567.1.133.3.233.5.233h13.2c.2 0 .367-.1.533-.233.134-.167.167-.367.134-.567l-.512-2.533H20c.567 0 1-.434 1-1V5.333c0-.566-.433-1-1-1zM6 1.667h10v2.666H6V1.667zM5.667 5H17v3.333c0 .567-.433 1-1 1H6c-.567 0-1-.433-1-1V5h.667zM2 5h2.333v3.333A1.65 1.65 0 0 0 6 10h10a1.65 1.65 0 0 0 1.667-1.667V5H20c.2 0 .333.133.333.333v7H1.667v-7C1.667 5.133 1.8 5 2 5zm2.4 15.333l.568-2.841A.354.354 0 0 0 5 17.4l.6-3.067h10.8L17 17.4a.353.353 0 0 0 .032.092l.568 2.841H4.4zm15.933-3.666c0 .2-.133.333-.333.333h-2.38L17 13.933a.325.325 0 0 0-.333-.266H5.333c-.166 0-.3.1-.333.266L4.396 17H2c-.2 0-.333-.133-.333-.333V13h18.666v3.667z"/>
</svg>
