<svg xmlns="http://www.w3.org/2000/svg" width="50" height="50" viewBox="0 0 50 50">
    <g fill="#15A649" fill-rule="evenodd">
        <path d="M27.5 19.167h10c.5 0 .833-.334.833-.834v-5c0-.5-.333-.833-.833-.833h-10c-.5 0-.833.333-.833.833v5c0 .5.333.834.833.834zm.833-5h8.334V17.5h-8.334v-3.333z"/>
        <path d="M47.5 8.333h-8.333V1.667C39.167.75 38.417 0 37.5 0h-25c-.917 0-1.667.75-1.667 1.667v6.666H2.5c-1.417 0-2.5 1.084-2.5 2.5v28.334c0 1.416 1.083 2.5 2.5 2.5h5.663L6.917 48c-.084.5.083 1.083.333 1.417C7.5 49.75 8 50 8.5 50h33c.5 0 .917-.25 1.333-.583.334-.417.417-.917.334-1.417l-1.28-6.333H47.5c1.417 0 2.5-1.084 2.5-2.5V10.833c0-1.416-1.083-2.5-2.5-2.5zm-35-6.666h25v6.666h-25V1.667zM11.667 10H40v8.333c0 1.417-1.083 2.5-2.5 2.5h-25c-1.417 0-2.5-1.083-2.5-2.5V10h1.667zM2.5 10h5.833v8.333A4.126 4.126 0 0 0 12.5 22.5h25a4.126 4.126 0 0 0 4.167-4.167V10H47.5c.5 0 .833.333.833.833v17.5H1.667v-17.5c0-.5.333-.833.833-.833zm6 38.333l1.42-7.104A.886.886 0 0 0 10 41l1.5-7.666h27L40 41c.017.083.044.16.08.23l1.42 7.103h-33zm39.833-9.166c0 .5-.333.833-.833.833h-5.95L40 32.333c-.083-.416-.417-.666-.833-.666H10.833c-.416 0-.75.25-.833.666L8.491 40H2.5c-.5 0-.833-.333-.833-.833V30h46.666v9.167z"/>
        <path d="M18.333 37.5h13.334c.5 0 .833-.333.833-.833 0-.5-.333-.834-.833-.834H18.333c-.5 0-.833.334-.833.834 0 .5.333.833.833.833zM15.833 41.667h18.334c.5 0 .833-.334.833-.834 0-.5-.333-.833-.833-.833H15.833c-.5 0-.833.333-.833.833 0 .5.333.834.833.834zM36.667 44.167H13.333c-.5 0-.833.333-.833.833 0 .5.333.833.833.833h23.334c.5 0 .833-.333.833-.833 0-.5-.333-.833-.833-.833z"/>
    </g>
</svg>
