<svg xmlns="http://www.w3.org/2000/svg" width="72" height="72" viewBox="0 0 72 72">
    <path fill="#15A649" fill-rule="evenodd" stroke="#3DA261" d="M70.976 12.31L68.74 1.884A1.117 1.117 0 0 0 67.65 1H4.35c-.527 0-.982.368-1.092.883L1.025 12.309a1.55 1.55 0 0 0-.025.234c0 2.338.84 4.482 2.234 6.149v51.191c0 .617.5 1.117 1.117 1.117H67.65c.617 0 1.117-.5 1.117-1.117V18.692A9.557 9.557 0 0 0 71 12.542a1.697 1.697 0 0 0-.024-.231zm-4.444 46.03H28.646V22.073A9.607 9.607 0 0 0 36 17.035c1.613 3.034 4.805 5.104 8.47 5.104 3.667 0 6.859-2.07 8.471-5.104 1.613 3.034 4.805 5.104 8.471 5.104a9.522 9.522 0 0 0 5.12-1.489v37.69zM27.529 19.905c-3.675 0-6.73-2.714-7.269-6.245H34.8c-.54 3.531-3.594 6.245-7.27 6.245zM3.32 13.66h14.537c-.54 3.531-3.593 6.245-7.27 6.245-3.675 0-6.727-2.714-7.267-6.245zm2.148 6.99a9.52 9.52 0 0 0 5.12 1.49c3.666 0 6.858-2.07 8.47-5.105a9.608 9.608 0 0 0 7.354 5.038v8.258H5.468v-9.68zm55.944-.745c-3.676 0-6.73-2.714-7.269-6.245H68.68c-.54 3.53-3.592 6.245-7.268 6.245zM5.254 3.234h61.492l1.755 8.192h-15.56c-.616 0-1.117.5-1.117 1.117 0 4.06-3.298 7.362-7.353 7.362-3.676 0-6.73-2.714-7.27-6.245h12.762a1.117 1.117 0 0 0 0-2.234H3.499l1.755-8.192zm.214 29.33h20.944v36.202H5.468V32.565zm23.178 36.202v-8.192h37.886v8.192H28.646z"/>
</svg>
