<svg xmlns="http://www.w3.org/2000/svg" width="31" height="25" viewBox="0 0 31 25">
    <path fill="#569DFE" fill-rule="evenodd" d="M31 2.958a12.771 12.771 0 0 1-3.652.994 6.348 6.348 0 0 0 2.796-3.49 12.877 12.877 0 0 1-4.041 1.532A6.363 6.363 0 0 0 21.46 0c-3.512 0-6.36 2.827-6.36 6.312 0 .494.057.977.166 1.439A18.098 18.098 0 0 1 2.16 1.154a6.231 6.231 0 0 0-.86 3.173 6.299 6.299 0 0 0 2.828 5.254 6.395 6.395 0 0 1-2.88-.792v.079c0 3.058 2.192 5.61 5.1 6.19a6.485 6.485 0 0 1-1.676.222c-.41 0-.807-.04-1.197-.117a6.357 6.357 0 0 0 5.94 4.385 12.818 12.818 0 0 1-7.898 2.698c-.514 0-1.02-.03-1.517-.087A18.07 18.07 0 0 0 9.748 25C21.446 25 27.84 15.38 27.84 7.037l-.022-.817A12.65 12.65 0 0 0 31 2.958z"/>
</svg>
