<svg xmlns="http://www.w3.org/2000/svg" width="32" height="24" viewBox="0 0 32 24">
    <path fill="#E91D00" fill-rule="evenodd" d="M31.663 5.173s-.313-2.346-1.275-3.386C29.176.427 27.814.427 27.177.347 22.717 0 16.007 0 16.007 0h-.013S9.284 0 4.798.347c-.625.08-1.987.08-3.211 1.44C.637 2.827.325 5.173.325 5.173S0 7.947 0 10.707v2.586c0 2.76.325 5.52.325 5.52S.637 21.16 1.599 22.2c1.212 1.36 2.812 1.32 3.524 1.453 2.561.267 10.87.347 10.87.347s6.723-.013 11.196-.36c.625-.08 1.987-.08 3.212-1.44.962-1.04 1.274-3.387 1.274-3.387s.325-2.76.325-5.52v-2.586c-.012-2.76-.337-5.534-.337-5.534zM12.695 16.427V6.84l8.647 4.813-8.647 4.774z"/>
</svg>
