<?xml version="1.0" standalone="no"?>
<!DOCTYPE svg PUBLIC "-//W3C//DTD SVG 1.1//EN" "http://www.w3.org/Graphics/SVG/1.1/DTD/svg11.dtd">
<svg xmlns="http://www.w3.org/2000/svg">
<metadata>Copyright (C) 2017 by original authors @ fontello.com</metadata>
<defs>
<font id="fontello" horiz-adv-x="1000" >
<font-face font-family="fontello" font-weight="400" font-stretch="normal" units-per-em="1000" ascent="850" descent="-150" />
<missing-glyph horiz-adv-x="1000" />
<glyph glyph-name="grid-two" unicode="&#xe802;" d="M406 288h719v-438h-1125v438h406z m32 562h-438v-437h1125v437h-687z" horiz-adv-x="1125" />

<glyph glyph-name="account" unicode="&#xe803;" d="M565 850c-307 5-560-244-565-556a568 568 0 0 1 198-442c8 7 17 14 26 19l166 92c22 12 36 35 36 61v69s-49 59-68 141a57 57 0 0 0-25 48v76c0 16 7 31 18 42v109s-22 170 205 170 204-170 204-170v-109c11-11 19-26 19-42v-76c0-25-17-47-40-54a419 419 0 0 0-55-113c-6-9-12-16-17-22v-71c0-26 15-50 37-62l178-90c11-6 20-12 29-20a568 568 0 0 1 200 425c5 312-239 570-546 575z" horiz-adv-x="1111" />

<glyph glyph-name="instagram" unicode="&#xe804;" d="M500 760c134 0 149-1 202-3 49-2 75-10 93-17 23-9 40-20 57-38 18-17 29-34 38-57 7-18 15-44 17-93 2-53 3-68 3-202s-1-149-3-202c-2-49-10-75-17-93a155 155 0 0 0-38-57c-17-18-34-29-57-38-18-7-44-15-93-17-53-2-68-3-202-3s-149 1-202 3c-49 2-75 10-93 17a155 155 0 0 0-57 38 155 155 0 0 0-38 57c-7 18-15 44-17 93-2 53-3 69-3 202s1 149 3 202c2 49 10 75 17 93a155 155 0 0 0 38 57c17 18 34 29 57 38 18 7 44 15 93 17 53 2 68 3 202 3m0 90c-136 0-153-1-206-3-53-2-90-11-121-23a245 245 0 0 1-89-58 245 245 0 0 1-58-88c-12-32-21-69-23-122-2-53-3-70-3-206 0-136 1-153 3-206 2-53 11-90 23-121 13-33 30-61 58-89a245 245 0 0 1 89-58c31-12 68-21 121-23 53-2 70-3 206-3 136 0 153 1 206 3 53 2 90 11 122 23a245 245 0 0 1 88 58 245 245 0 0 1 58 89c12 31 21 68 23 121 2 53 3 70 3 206 0 136-1 153-3 206-2 53-11 90-23 122a245 245 0 0 1-58 88 245 245 0 0 1-88 58c-32 12-69 21-122 23-53 2-70 3-206 3m0-243a257 257 0 1 0 0-514 257 257 0 0 0 0 514z m0-424a167 167 0 1 1 0 334 167 167 0 0 1 0-334z m327 434a60 60 0 1 0-120 0 60 60 0 0 0 120 0" horiz-adv-x="1000" />

<glyph glyph-name="mail" unicode="&#xe805;" d="M0 850v-1000h1539v1000h-1539z m769-617l-631 543h1262l-631-543z m-251 117l-442-381v762l442-381z m57-49l194-167 194 167 438-377h-1263l437 377z m446 49l442 381v-762l-442 381z" horiz-adv-x="1538" />

<glyph glyph-name="plus" unicode="&#xe806;" d="M429 279v-429h142v429h429v142h-429v429h-142v-429h-429v-142h429z" horiz-adv-x="1000" />

<glyph glyph-name="print" unicode="&#xe807;" d="M909 653h-151v121c0 17-14 31-31 31h-454c-17 0-31-14-31-31v-121h-151c-26 0-45-20-45-45v-516c0-25 19-45 45-45h103l-23-115c-1-9 2-20 6-26 5-6 14-11 23-11h600c9 0 17 5 24 11 6 8 8 17 6 26l-23 115h102c26 0 46 20 46 45v516c0 25-20 45-46 45z m-636 121h454v-121h-454v121z m-15-151h515v-152c0-25-20-45-46-45h-454c-26 0-46 20-46 45v152h31z m-167 0h106v-152a75 75 0 0 1 76-75h454a75 75 0 0 1 76 75v152h106c9 0 15-6 15-15v-319h-848v319c0 9 6 15 15 15z m109-697l26 129a16 16 0 0 1 1 4l28 140h491l27-140a16 16 0 0 1 1-4l26-129h-600z m724 166c0-9-6-15-15-15h-108l-28 140a15 15 0 0 1-15 12h-516c-7 0-13-5-15-12l-27-140h-109c-9 0-15 6-15 15v167h848v-167z" horiz-adv-x="1000" />

<glyph glyph-name="print-2" unicode="&#xe808;" d="M550 467h200c10 0 17 6 17 16v100c0 10-7 17-17 17h-200c-10 0-17-7-17-17v-100c0-10 7-16 17-16z m17 100h166v-67h-166v67z m383 116h-167v134c0 18-15 33-33 33h-500c-18 0-33-15-33-33v-134h-167c-28 0-50-21-50-50v-566c0-29 22-50 50-50h113l-25-127c-1-10 2-22 7-28 5-7 15-12 25-12h660c10 0 18 5 27 12 6 8 8 18 6 28l-25 127h112c28 0 50 21 50 50v566c0 29-22 50-50 50z m-700 134h500v-134h-500v134z m-17-167h567v-167c0-28-22-50-50-50h-500c-28 0-50 22-50 50v167h33z m-183 0h117v-167a83 83 0 0 1 83-83h500a83 83 0 0 1 83 83v167h117c10 0 17-7 17-17v-350h-934v350c0 10 7 17 17 17z m120-767l28 142a18 18 0 0 1 2 5l30 153h540l30-153c0-2 1-3 2-5l28-142h-660z m797 184c0-10-7-17-17-17h-119l-31 153c-2 9-8 14-17 14h-566c-9 0-15-5-17-14l-30-153h-120c-10 0-17 7-17 17v183h934v-183z m-600 33h266c10 0 17 7 17 17 0 10-7 16-17 16h-266c-10 0-17-6-17-16 0-10 7-17 17-17z m-50-83h366c10 0 17 6 17 16 0 10-7 17-17 17h-366c-10 0-17-7-17-17 0-10 7-16 17-16z m416-50h-466c-10 0-17-7-17-17 0-10 7-17 17-17h466c10 0 17 7 17 17 0 10-7 17-17 17z" horiz-adv-x="1000" />

<glyph glyph-name="search" unicode="&#xe809;" d="M705 224a389 389 0 0 1 78 234c0 216-175 392-391 392s-392-176-392-392 176-391 392-391a389 389 0 0 1 234 78l295-295 79 79-295 295z m-309 535a305 305 0 0 0 305-305 305 305 0 0 0-305-304 305 305 0 0 0-305 304 305 305 0 0 0 305 305z" horiz-adv-x="1000" />

<glyph glyph-name="store" unicode="&#xe80a;" d="M986 679l-31 145a16 16 0 0 1-15 12h-880c-7 0-13-5-15-12l-31-145a22 22 0 0 1 0-3c0-33 12-62 31-86v-711c0-8 7-15 15-15h880c8 0 15 7 15 15v711a133 133 0 0 1 31 86 24 24 0 0 1 0 3z m-62-639h-526v503a133 133 0 0 1 102 70c22-42 67-70 118-70 51 0 95 28 117 70 23-42 67-70 118-70a132 132 0 0 1 71 20v-523z m-542 534c-51 0-93 37-101 86h202c-7-49-50-86-101-86z m-336 86h202c-7-49-50-86-101-86-51 0-93 37-101 86z m30-97a132 132 0 0 1 71-20c51 0 95 28 118 70a133 133 0 0 1 102-70v-114h-291v134z m777 11c-51 0-93 37-101 86h202c-8-49-50-86-101-86z m-780 231h854l24-114h-216c-8 0-15-7-15-15 0-57-46-102-102-102-51 0-94 37-101 86h177a16 16 0 0 1 0 31h-645l24 114z m3-407h291v-503h-291v503z m322-503v114h526v-114h-526z" horiz-adv-x="1000" />

<glyph glyph-name="tri-down" unicode="&#xe80b;" d="M0 850h1250l-625-1000z" horiz-adv-x="1250" />

<glyph glyph-name="tri-left" unicode="&#xe80c;" d="M800 850v-1000l-800 500z" horiz-adv-x="800" />

<glyph glyph-name="tri-right" unicode="&#xe80d;" d="M0-150v1000l800-500z" horiz-adv-x="800" />

<glyph glyph-name="tri-up" unicode="&#xe80e;" d="M1250-150h-1250l625 1000z" horiz-adv-x="1250" />

<glyph glyph-name="twitter" unicode="&#xe80f;" d="M1240 732a511 511 0 0 0-146-40 254 254 0 0 1 112 140 515 515 0 0 0-162-62 255 255 0 0 1-186 80c-140 0-254-113-254-252 0-20 2-40 7-58a724 724 0 0 0-525 264 249 249 0 0 1-34-127 252 252 0 0 1 113-210 256 256 0 0 0-115 31v-3c0-122 88-224 204-247a259 259 0 0 0-67-9c-16 0-32 1-48 5a254 254 0 0 1 238-176 513 513 0 0 0-316-108c-21 0-41 1-61 4a723 723 0 0 1 390-114c468 0 724 385 724 719l-1 32a506 506 0 0 1 127 131z" horiz-adv-x="1240" />

<glyph glyph-name="arrow-left" unicode="&#xe812;" d="M58 403l442 442 106-106-389-389 389-389-106-106-495 495 53 53z" horiz-adv-x="650" />

<glyph glyph-name="arrow-right" unicode="&#xe813;" d="M592 297l-442-442-106 106 389 389-389 389 106 106 495-495-53-53z" horiz-adv-x="650" />

<glyph glyph-name="arrow-up" unicode="&#xe814;" d="M851 761l680-680-163-163-599 598-598-598-163 163 761 761 82-81z" horiz-adv-x="1538" />

<glyph glyph-name="arrow-down" unicode="&#xe815;" d="M724-45l89-88 795 796-177 176-618-618-619 618-177-176 707-708z" horiz-adv-x="1625" />

<glyph glyph-name="cart" unicode="&#xe817;" d="M921 43v74h-618l39 73 605 60 106 400h-810l-46 200h-197v-67h145l138-560-86-173v-100c0-53 46-100 99-100s99 47 99 100-46 100-99 100h494v-100c0-53 46-100 98-100s99 47 99 100c0 47-26 80-66 93z" horiz-adv-x="1053" />

<glyph glyph-name="cart-2" unicode="&#xe819;" d="M920 55c40-13 66-46 66-92 0-52-46-98-98-98s-99 46-99 98v99h-493c52 0 98-46 98-99 0-52-46-98-98-98-53 0-99 46-99 98v99l86 171-138 551h-145v66h197l46-197h809l-105-394-605-59-40-72h618v-73z m-657 532l79-315 551 53 66 262h-696z" horiz-adv-x="1064" />

<glyph glyph-name="close" unicode="&#xe81a;" d="M494 251l384-384 92 92-384 385 384 384-92 92-384-384-385 384-92-92 384-384-384-385 92-92 385 384z" horiz-adv-x="1000" />

<glyph glyph-name="facebook" unicode="&#xe81c;" d="M275-150v501h171l27 166h-198v83c0 43 15 84 79 84h129v166h-183c-153 0-195-98-195-233v-100h-105v-166h105v-501h170z" horiz-adv-x="483" />

<glyph glyph-name="clock" unicode="&#xe81d;" d="M525 600h-75v-300l260-160 40 65-225 135v260z m-25 250c275 0 500-225 500-500s-225-500-500-500-500 225-500 500 225 500 500 500z m0-900c220 0 400 180 400 400s-180 400-400 400-400-180-400-400 180-400 400-400z" horiz-adv-x="1000" />

<glyph glyph-name="grid-four" unicode="&#xe81e;" d="M0 850h500v-437h-500v437z m625 0h500v-437h-500v437z m0-562h500v-438h-500v438z m-625 0h500v-438h-500v438z" horiz-adv-x="1125" />

<glyph glyph-name="grid-list" unicode="&#xe81f;" d="M0 850h1188v-125h-1188v125z m0-437h1188v-125h-1188v125z m0-438h1188v-125h-1188v125z" horiz-adv-x="1188" />

<glyph glyph-name="youtube" unicode="&#xe820;" d="M1319 635s-13 97-53 141c-50 56-107 56-134 60-185 14-465 14-465 14h-1s-279 0-466-14c-26-4-83-4-134-60-39-44-52-141-52-141s-14-116-14-231v-108c0-115 14-230 14-230s13-98 53-141c50-57 117-55 147-61 106-11 452-14 452-14s281 0 467 15c26 3 83 3 134 60 40 43 53 141 53 141s13 115 13 230v108c0 115-14 231-14 231z m-790-469v399l360-200-360-199z" horiz-adv-x="1333" />
</font>
</defs>
</svg>
